<svg xmlns="http://www.w3.org/2000/svg" viewBox="0 0 300 400" preserveAspectRatio="xMidYMax slice">
  <defs>
    <linearGradient id="skin" x1="0%" y1="0%" x2="0%" y2="100%">
      <stop offset="0%" stop-color="#e8c9a8"></stop>
      <stop offset="100%" stop-color="#c99d78"></stop>
    </linearGradient>
    <linearGradient id="shirt" x1="0%" y1="0%" x2="0%" y2="100%">
      <stop offset="0%" stop-color="#faf4e8"></stop>
      <stop offset="100%" stop-color="#e8dbc4"></stop>
    </linearGradient>
    <linearGradient id="pants" x1="0%" y1="0%" x2="0%" y2="100%">
      <stop offset="0%" stop-color="#d8cba8"></stop>
      <stop offset="100%" stop-color="#b8a878"></stop>
    </linearGradient>
    <linearGradient id="cap" x1="0%" y1="0%" x2="0%" y2="100%">
      <stop offset="0%" stop-color="#f4ecd8"></stop>
      <stop offset="100%" stop-color="#d8c898"></stop>
    </linearGradient>
  </defs>
  
  <path d="M 115 260 L 105 400 L 140 400 L 148 280 Z" fill="url(#pants)"></path>
  <path d="M 185 260 L 195 400 L 160 400 L 152 280 Z" fill="url(#pants)"></path>
  
  <path d="M 95 170 Q 95 160 110 155 L 190 155 Q 205 160 205 170 L 210 275 Q 180 285 150 285 Q 120 285 90 275 Z" fill="url(#shirt)"></path>
  
  <path d="M 135 155 L 150 175 L 165 155 Z" fill="#e8dbc4"></path>
  
  <circle cx="150" cy="185" r="1.5" fill="#a08960"></circle>
  <circle cx="150" cy="200" r="1.5" fill="#a08960"></circle>
  
  <path d="M 95 175 Q 75 200 72 240 Q 75 260 90 258 L 105 220 Z" fill="url(#shirt)"></path>
  <path d="M 205 175 Q 225 200 228 240 Q 225 260 210 258 L 195 220 Z" fill="url(#shirt)"></path>
  
  <ellipse cx="80" cy="258" rx="10" ry="12" fill="url(#skin)"></ellipse>
  <ellipse cx="220" cy="258" rx="10" ry="12" fill="url(#skin)"></ellipse>
  
  <rect x="140" y="130" width="20" height="28" fill="url(#skin)"></rect>
  
  <ellipse cx="150" cy="110" rx="34" ry="40" fill="url(#skin)"></ellipse>
  
  <path d="M 116 95 Q 118 70 150 68 Q 182 70 184 95 L 184 105 L 116 105 Z" fill="url(#cap)"></path>
  
  <path d="M 112 104 Q 150 110 188 104 L 188 108 Q 150 116 112 108 Z" fill="#d8c898"></path>
  
  <rect x="144" y="80" width="12" height="8" rx="1" fill="#005840"></rect>
  
  <ellipse cx="138" cy="108" rx="1.8" ry="2.2" fill="#5a4a38" opacity="0.7"></ellipse>
  <ellipse cx="162" cy="108" rx="1.8" ry="2.2" fill="#5a4a38" opacity="0.7"></ellipse>
  <path d="M 142 124 Q 150 128 158 124" stroke="#8a6b4a" stroke-width="1.5" fill="none" opacity="0.5"></path>
  
  <path d="M 120 105 Q 124 100 130 104" stroke="#3a2820" stroke-width="2.5" fill="none" opacity="0.6"></path>
  <path d="M 170 104 Q 176 100 180 105" stroke="#3a2820" stroke-width="2.5" fill="none" opacity="0.6"></path>
</svg>