<svg xmlns="http://www.w3.org/2000/svg" viewBox="0 0 538 470">
  <rect width="538" height="470" rx="40" fill="#005840"/>
  <g fill="#FFFFFF">
    <path d="M319.0 448.6c-2.3-1.3-10.9-4.8-58.5-24.1-9.9-4.0-19.8-8.1-22.0-9.1l-4.0-1.8 4.5-0.7c12.7-1.9 21.7-10.2 27.1-24.9l2.4-6.5 0.3-177.2 0.2-177.3 28.0 0 28.0 0 0.2 72.1 0.3 72.0 7.1-8.3c4.0-4.6 13.2-15.5 20.5-24.3 7.3-8.8 18.5-22.1 24.9-29.5 6.4-7.4 15.2-17.8 19.5-23.0 4.4-5.2 13.7-16.2 20.9-24.5 7.1-8.2 16.7-19.4 21.3-24.7l8.4-9.8 35.5 0c19.4 0 35.4 0.2 35.4 0.4 0 0.2-7.3 8.9-16.2 19.4-9.0 10.4-21.9 25.6-28.8 33.7-31.9 37.6-55.2 64.9-79.0 92.5-5.9 6.9-13.0 15.3-15.8 18.7-2.8 3.4-5.6 6.4-6.2 6.8-0.5 0.3-1.0 1.0-1.0 1.4 0 0.7 9.0 8.3 22.1 18.6 4.2 3.3 16.3 13.0 27.0 21.5 10.7 8.6 22.3 17.8 25.9 20.6 37.8 29.2 55.0 42.7 55.0 43.0 0 0.2-12.6 0.4-27.9 0.4l-28.0 0-2.5-8.2c-2.5-8.3-10.2-22.8-15.9-30.3-10.8-13.9-17.8-20.5-50.2-47.0-8.7-7.1-18.9-15.6-22.5-18.7-10.0-8.5-29.3-23.8-29.7-23.4-0.2 0.1-0.3 61.8-0.3 136.9 0 129.7-0.1 136.7-1.7 136.7-1.0-0.1-2.9-0.7-4.3-1.4zM120.0 311.0c-15.5-1.5-30.5-5.8-43.5-12.3-22.5-11.2-38.4-27.5-44.6-45.7-2.8-8.2-3.0-19.4-0.6-26.7 2.5-7.1 8.8-13.9 16.2-17.4 4.9-2.4 7.3-2.9 13.5-2.9 6.2 0 8.5 0.5 13.5 2.9 7.5 3.6 11.6 7.9 15.0 15.5 3.5 8.0 4.1 13.8 2.1 21.4-3.0 11.6-11.9 20.9-22.3 23.3-2.9 0.7-5.3 1.4-5.3 1.6 0 0.3 1.3 2.3 2.9 4.7 6.0 8.6 14.6 14.6 26.0 18.0 6.8 2.0 22.2 2.1 31.3 0.2 25.4-5.4 46.2-28.5 54.2-60.1 3.4-13.8 4.7-25.0 4.4-38.0l-0.3-11.0-9.5-2.1c-29.1-6.6-54.6-12.7-63.0-14.9-45.0-12.2-72.0-29.0-82.9-51.7-4.4-9.1-7.1-20.5-7.1-29.6 0-10.0 2.9-24.1 6.5-31.2 7.0-14.0 15.2-22.3 27.9-28.5 9.8-4.8 17.2-6.6 30.2-7.2 31.6-1.6 61.3 10.7 88.5 36.5l9.9 9.4 0-19.1 0-19.1 27.5 0 27.5 0 0.1 33.8c0 18.5 0 61.8-0.1 96.2-0.1 57.6-0.3 63.2-2.1 72.0-2.8 13.8-5.5 21.6-10.8 31.4-11.1 20.7-27.4 35.2-49.6 43.7-15.5 6.1-37.1 8.7-55.5 6.9z"/>
  </g>
  <circle cx="484" cy="362" r="31" fill="#D1F843"/>
</svg>
