<svg xmlns="http://www.w3.org/2000/svg" viewBox="0 0 327.12 528.1"><defs><style>.cls-1{fill:#fff;}</style></defs><g id="Ung"><path class="cls-1" d="M163.33,377.71l-1.46-1.78c-11-13.4-24.94-21.39-38.31-21.92H74a41.14,41.14,0,0,1-41.09-41.09L32.6,34.32H294.22l.3,278.6A41.14,41.14,0,0,1,253.42,354H203c-13.3.53-27.27,8.52-38.24,21.92ZM36.36,38.08l.29,274.84A37.38,37.38,0,0,0,74,350.25h49.66c13.91.55,28.25,8.38,39.69,21.57,11.43-13.19,25.76-21,39.61-21.57h50.48a37.36,37.36,0,0,0,37.33-37.33l-.29-274.84Z"/><path class="cls-1" d="M281.68,46.82H45.14l.29,266.06A28.58,28.58,0,0,0,74,341.42h50c13.58.54,27.54,6.91,39.34,17.76,11.8-10.85,25.73-17.22,39.27-17.76h50.83A28.57,28.57,0,0,0,282,312.88ZM157.22,83.72l6.11-18.08,6.11,18.08,19.09.23-15.32,11.4,5.69,18.22-15.57-11-15.58,11,5.69-18.22L138.13,84ZM178.9,320l-15.57-11-15.58,11,5.69-18.22-15.31-11.4,19.09-.23L163.33,272l6.11,18.08,19.09.23-15.31,11.4Zm64.5-170H243A16.21,16.21,0,0,0,236.8,151a9.49,9.49,0,0,0-3.83,3.31c-1,1.46-2.15,4.38-3.51,8.92L203,253.64H178l-.07-.27-14.3-47.77-15.7,48h-24L97.15,161.88c-1.19-4.15-2.21-6.78-3.13-8a9,9,0,0,0-3.9-3,10.68,10.68,0,0,0-5-.91H83.55V134.78h49.54V150h-.37a24,24,0,0,0-5.44.37,4.84,4.84,0,0,0-2.54,1.77,4.91,4.91,0,0,0-1.06,3.07,26.51,26.51,0,0,0,1.14,5.8l16.56,59.8,15.09-42.07-5.59-18.22a16,16,0,0,1-.64-2c-.79-3-2-5.11-3.63-6.39a11.07,11.07,0,0,0-5.86-2l-.33,0V134.78h48.81V150h-3.32c-3.18,0-5.14.38-6.16,1.2a5.27,5.27,0,0,0-2.09,4.28,33.77,33.77,0,0,0,1.32,6.82l14.92,58.38,15.41-58.37c1.5-5.5,1.67-6.83,1.67-7.35a4.37,4.37,0,0,0-1.87-3.76c-1.17-.81-3.23-1.2-6.29-1.2h-3.24l0-15.18H243.4Z"/><polygon class="cls-1" points="102.76 454.95 88.66 454.95 81.24 417.68 81.09 417.68 73.67 454.95 59.35 454.95 44.73 400.87 58.82 400.87 66.47 440.41 66.62 440.41 74.58 400.87 87.83 400.87 95.79 440.41 95.94 440.41 103.59 400.87 117.68 400.87 102.76 454.95"/><path class="cls-1" d="M134.8,400.87h14.31L169.34,455h-14.7l-3.33-9.69H132.45L129,455H114.57Zm.9,33.93H148l-6-18.94h-.16Z"/><polygon class="cls-1" points="174.41 400.87 188.88 400.87 207.67 434.2 207.82 434.2 207.82 400.87 221.07 400.87 221.07 454.95 206.61 454.95 187.82 421.24 187.67 421.24 187.67 454.95 174.41 454.95 174.41 400.87"/><path class="cls-1" d="M281.75,455h-9.09l-.83-5.9c-3.72,5.22-10.08,7-15.08,7-16.36,0-27-12.49-27-28.17s10.61-28.18,27-28.18c11.21,0,23.18,6,24.47,19.55H267.13c-.45-4.62-5-7.43-10.68-7.43-9.09,0-12.58,8-12.58,16.06s3.49,16,12.58,16c7,0,11.66-3.25,12.43-8.17H259V425.34h22.72Z"/></g></svg>
